<?xml version="1.0" encoding="UTF-8"?>
<svg id="Layer_2" data-name="Layer 2" xmlns="http://www.w3.org/2000/svg" viewBox="0 0 1480.89 771.87">
  <defs>
    <style>
      .cls-1 {
        fill: #fda305;
      }

      .cls-1, .cls-2, .cls-3 {
        stroke-width: 0px;
      }

      .cls-2 {
        fill: #5ba01d;
      }

      .cls-3 {
        fill: #ac5c08;
      }
    </style>
  </defs>
  <g id="Layer_1-2" data-name="Layer 1">
    <g>
      <path class="cls-3" d="M864.28,73.56c8.01,16.11,15.98,32.24,24.07,48.31.87,1.73,2.23,3.01,1.89,5.33-.7,4.71,1.43,7.83,5.64,10.29,6.98,4.09,7.67,11.62,7.65,18.48-.02,8.19,2.12,14.31,9.36,18.75,4.58,2.81,5.52,8.19,6.17,13.09.79,5.86,3.31,10.91,8.61,12.82,10.26,3.7,14.97,13.6,23.31,19.33,1.19.81,2.01,3.07,1.95,4.63-.39,10.99,6.35,15.49,16.6,12.41,9.1-2.74,18.73-3.81,28.17-5.32,4.45-.71,8.81-1.18,12.7-3.82,3.7-2.52,5.99-2.31,5.56,3.18-.62,8.02-2.44,15.42-6.66,22.53-9.37,15.8-16.4,33.04-30.43,45.82-7.95,7.24-18.33,11.09-25.5,19.42-12.75,14.82-28.39,27.42-35.15,46.76-1.48,4.24-2.9,8.03,1.98,11.12,1.99,1.26,1,3.49.99,5.48-.04,8.9-.65,18.09,7.91,24.25,1.64,1.18,1.49,2.99,1.35,4.79-.74,9.49.02,18.92,1.32,28.31,1.04,7.51-6.49,18.02-15.1,21.97-9.03,4.14-17.33,5.88-27.5,1.94-12.28-4.75-25.74-6.07-38.95-7.33-4.38-.42-6.25-1.74-6.25-6.8.18-119.61.16-239.23.16-358.84,0-2.75-.14-5.43,1.74-7.84,4.95-6.35,4.27-12.66-1.12-18.24-2.61-2.7-2.23-4.24.83-5.43,5.08-1.97,10.07-4.2,15.55-.4,4.37,3.04,9.6,1.76,14.51,1.4,2.01-.15,3.75-.92,4.95,1.69,3.85,8.37,4.84,16.75.3,25.11-2.78,5.13-5.41,1.49-7.39-.75-3.43-3.87-4.04-9.52-9.21-12.42Z"/>
      <path class="cls-3" d="M711.69,490.5c19.42,5.49,38.77,8.8,58.48,10.18,33.91,2.37,67.46-.74,100.85-6.21,15.42-2.52,16.66-1.95,18.89,13.91,1.94,13.77.18,16.84-12.87,21.89-5.96,2.31-10.34,3.81-8.77,12.97,1.35,7.87-.28,17.65-9.21,23.07-1.58.96-2.96,2.83-3.63,4.58-4.28,11.11-13.27,18.57-20.91,27.02-11.98,13.26-27.49,16.86-44.65,15.4-7.34-.63-13.7,3.28-20.67,4.52-4.92.88-15.88-.47-16.51-4.85-.69-4.85-8.53-8.77-2.06-15.03,1.99-1.93.26-6.23-1.62-9.1-3.86-5.89-6.79-12.18-8.85-18.94-.93-3.05-2.41-6.01-5.02-8.2-5.17-4.34-8.55-9.99-9.67-16.51-1.97-11.43-6.15-22.54-5.1-34.43.5-5.61-4.4-8.75-6.29-13.27-.84-2-3.09-3.4-2.4-7.01Z"/>
      <path class="cls-3" d="M599.76,736.31c-12.03,0-23-.22-33.95.1-4.79.14-7.01-1.09-6.3-6.16.31-2.21.29-4.52.07-6.75-.43-4.5,2.36-4.69,5.66-4.68,17.78.04,35.57.16,53.34-.09,5.07-.07,5.61,2.11,5.34,6.38-1.89,29.74-32.25,51.67-63.06,45.4-22.51-4.58-40.02-23.15-41.76-44.27-2.03-24.66,10.97-45.48,33.86-54.23,20.7-7.91,46.82-.5,60.19,17.1,1.05,1.39,1.84,2.97,2.83,4.41,3.37,4.86,2.4,6.75-3.76,6.57-8.19-.24-15.55-.04-22.39-6.98-8.88-9.01-30.92-9.27-42.31,3.17-11.78,12.87-13.81,29.33-3.79,42.87,14.85,20.07,44.72,19.23,56.02-2.83Z"/>
      <path class="cls-3" d="M733.36,720.22c-.06,28.9-22.5,51.3-51.43,51.31-28.64.01-51.32-22.81-51.26-51.57.06-28.2,23-51.09,51.14-51.04,28.88.05,51.61,22.67,51.55,51.3ZM714.76,719.89c-.04-19.06-14.21-33.23-33.12-33.12-18.54.11-32.56,14.75-32.43,33.88.12,17.99,15.1,33.04,32.86,33.02,18.38-.03,32.72-14.84,32.69-33.77Z"/>
      <path class="cls-2" d="M1108.6,721.28c-.51,28.64-23,50.47-51.63,50.11-28.96-.36-51-23.42-50.58-52.93.4-27.73,24.03-49.89,52.61-49.33,28.34.56,50.11,23.44,49.6,52.14ZM1090.48,719.65c-.2-19.15-14.41-33.23-33.31-33-18.24.22-32.68,14.83-32.77,33.16-.09,18.52,15.52,34.29,33.75,34.08,18.23-.21,32.53-15.35,32.34-34.24Z"/>
      <path class="cls-2" d="M1274.42,768.44c-1.44.45-1.67.55-1.92.6-13.65,2.58-23.68-1.16-30.24-14.54-3.46-7.06-8.13-14.01-15.52-21.24,0,11-.27,20.1.1,29.18.21,5.13-1.24,7.51-6.63,6.78-1.96-.26-4.03-.25-5.99.02-4.77.65-5.84-1.45-5.81-5.94.2-28.75.21-57.49.03-86.24-.03-4.94,1.49-6.58,6.42-6.38,9.24.38,18.51-.06,27.76.31,15.11.6,28.43,10.35,30.53,21.94,3.23,17.77-3.12,30.92-18.98,37.88-4.98,2.18-4.25,4.21-1.73,7.6,7.26,9.76,14.38,19.61,21.99,30.02ZM1234.42,688.44c-7.03-2.38-8.26,1.96-7.76,8.66.41,5.45.12,10.96.13,16.44,0,2.08.08,4.31,2.82,4.35,6.94.12,13.93.74,20.32-3.27,5.24-3.28,6-8.05,5.83-13.57-.18-5.49-3.14-8.66-7.81-10.77-3.98-1.8-8.16-2.14-13.53-1.85Z"/>
      <path class="cls-1" d="M236.39,769.3c-7.55,0-13.51-.1-19.47.03-4.08.09-5.32-3.09-7.12-5.68-6.45-9.3-12.87-18.62-19.15-27.72-3.28.78-2.42,2.92-2.44,4.44-.11,6-.04,12-.01,17.99.05,10.25-5.89,14.27-15.87,10.86-3.56-1.22-2.21-4.09-2.22-6.27-.11-25.74-.13-51.49-.09-77.23.03-15.18.1-15.35,15.36-15.11,9.19.14,18.48-1.3,27.56,1.58,13.98,4.42,21.75,13.65,22.6,27.17.87,13.92-6.3,25.74-19.33,31.33-4.33,1.86-5.11,3.59-2.04,7.64,7.31,9.63,14.14,19.63,22.23,30.97ZM188.16,702.84c-.02,16.53,1.28,17.7,16.05,14.45,8.97-1.98,13.69-8.08,12.62-16.3-1.24-9.5-9.01-13.95-24.15-12.47-9.07.89-2.45,8.69-4.5,12.84-.2.4-.03.99-.03,1.48Z"/>
      <path class="cls-1" d="M365.32,699.13c-8.67,2.9-13.39-4.16-19.45-7.57-21.3-11.97-42.83,1.07-47.03,20.88-3.9,18.42,5.28,35.39,24.74,40.42,9.74,2.52,18.47.15,25.67-6.38,7.47-6.77,16.11-3.74,24.28-3.81,3.82-.03,1,3.09.33,4.29-5.95,10.73-15.16,17.97-26.56,21.74-19.27,6.38-37.01,3.35-51.9-11.19-15.03-14.68-20.44-32.31-14.04-52.54,5.72-18.06,17.74-30.67,36.62-34.53,22.47-4.6,41.33,2.07,55.05,21.17,1.35,1.89,2.97,4.62,1.88,6.15-2.34,3.31-6.43,1.01-9.61,1.36Z"/>
      <path class="cls-1" d="M465.02,769.32c-6.96,1.92-10.16-2.29-12.71-9.55-5.51-15.67-6.04-14.34-22.37-15.91-14.94-1.43-23.44,3.14-26.65,17.92-.53,2.44-.68,6.79-4.39,7.13-5.44.51-11.03.53-16.44-.13-2.81-.35-1.33-3.26-.63-4.93,12.22-29.27,24.64-58.46,36.65-87.81,2.08-5.08,5.24-5.49,9.8-5.64,4.92-.17,7.71,1.27,9.66,6.02,11.83,28.63,23.73,57.24,36.09,85.64,2.73,6.27,1.62,7.99-4.8,7.28-.99-.11-2-.02-4.21-.02ZM428.78,726.04c2.35-1.86,10.78,4.21,8.12-5.66-1.71-6.36-4.44-12.44-6.79-18.62-.33-.86-1.03-2.05-1.73-2.18-1.33-.25-2.01,1.01-2.4,2.18-1.49,4.47-2.71,9.03-4.45,13.4-4.16,10.43-4.03,10.76,7.26,10.88Z"/>
      <path class="cls-1" d="M83.55,769.37c-5.89,1.97-9.89-1.34-11.23-8.28-2.9-14.95-12.24-18.35-26.41-17.14-16.46,1.4-16.54.45-22.65,15.96-3.31,8.42-12.4,12.28-21.24,9.3-3.54-1.19-1.48-3.07-.85-4.62,7.56-18.59,15.17-37.16,22.83-55.72,4.64-11.24,9.59-22.36,13.97-33.7,1.48-3.84,3.77-5.14,7.35-4.58,3.77.6,8.32-2.12,10.8,3.83,12.46,29.98,25.27,59.81,37.99,89.69,1.74,4.08.14,5.46-3.87,5.27-1.75-.09-3.5-.01-6.68-.01ZM48.09,698.21c-4.21,4.8-5.09,10.11-6.7,14.93-4.54,13.68-8.12,12.89,10.19,13,4.59.03,5.81-1.55,4.34-5.7-2.54-7.17-5.05-14.34-7.83-22.23Z"/>
      <path class="cls-2" d="M998.14,742.06c-3.62,16.2-28.04,31.94-50.45,29.04-24.26-3.14-43.35-22.99-45.07-47.82-1.65-23.68,14.93-47.14,37.21-52.67,24.45-6.06,49.35,5.42,59.24,28.01-9.5-.33-18.16,1.87-26.78-5.43-13.19-11.18-32.14-8.19-43.62,5.07-11.31,13.07-10.47,33.31,1.9,45.62,12.68,12.62,30.54,13.49,43.87,1.76,7.38-6.5,15.73-1.48,23.69-3.59Z"/>
      <path class="cls-2" d="M1189.29,708.59c0,10.51.38,21.04-.09,31.53-.75,16.98-14.44,30.29-31.51,31.27-15.56.9-30.91-11.35-33.36-27.56-2.36-15.64-.61-31.48-.99-47.23-.12-5-.18-10.02.04-15.01.15-3.4-1.72-8.26,1.16-9.88,4.26-2.4,9.78-1.1,14.69-.59,3.19.33,2.05,3.53,2.06,5.56.08,16.27.05,32.54.05,48.8,0,3-.04,6.01,0,9.01.19,12,5.87,19.18,15.28,19.35,9.4.18,14.82-6.81,14.86-19.36.06-18.02-.07-36.04.05-54.06.07-10.47-1.8-9.12,9.58-9.74,6.75-.37,9.16,1.45,8.57,8.65-.78,9.7-.19,19.51-.19,29.27-.07,0-.13,0-.2,0Z"/>
      <path class="cls-2" d="M1467.5,696.91c-3.74.51-7.51.24-9.63-5.3-1.71-4.45-6.49-5.26-10.89-4.74-4.04.48-6.78,2.99-7.72,7.07-1.04,4.56.09,8.33,4.04,11.2,4.78,3.46,10.46,4.72,15.82,6.71,16.1,5.98,23.02,15.98,21.59,31.65-1.27,13.84-12.2,25.05-26.68,27.37-14.63,2.34-28.5-4.97-34.43-18.19-.61-1.36-1.1-2.79-1.48-4.23-1.36-5.14-1.19-8.72,5.99-7.95,5.9.63,11.92-1.4,14.42,7.38,1.51,5.31,7.83,6.5,13.46,5.64,5.5-.84,9.22-4.12,10.4-9.45,1.22-5.51-.33-10.43-5.2-13.86-6.03-4.26-13.29-5.65-19.93-8.5-14.88-6.38-21.05-23.29-13.4-37.46,5.97-11.06,15.71-15.67,27.99-14.97,11.48.65,21.86,8.72,25.4,19.28,2.49,7.44,1.47,8.4-9.77,8.36Z"/>
      <path class="cls-2" d="M1329.42,696.92c-4.03.52-8.02.25-10.29-5.69-1.67-4.37-6.7-4.94-11.07-4.28-3.69.55-6.4,2.96-7.24,6.69-.98,4.37-.44,8.4,3.65,11.33,4.78,3.43,10.4,4.88,15.78,6.79,16.22,5.76,23.37,16.02,21.92,32.05-1.19,13.12-12.53,24.83-26.18,27.05-15.14,2.46-29.06-4.86-34.95-18.49-.88-2.04-1.39-4.26-1.92-6.43-.93-3.81.41-5.68,4.56-5.37,2.74.2,5.51.16,8.25-.02,3.35-.22,5.36.41,6.42,4.32,1.84,6.8,7.45,9.16,13.96,8.8,6.09-.34,10.51-3.78,11.64-9.86,1.21-6.48-1.23-11.54-7.28-15-5.29-3.03-11.19-4.21-16.67-6.6-10.69-4.67-17.51-12.02-17.63-24.41-.11-12.36,5.6-20.96,16.55-26.16,13.94-6.62,31.14-.39,38.26,13.67,4.83,9.54,3.61,11.6-7.76,11.62Z"/>
      <path class="cls-2" d="M1354.98,719.69c-.01-14.02.14-28.03-.09-42.04-.08-4.89.97-7.15,6.56-6.98,13.26.4,26.55.33,39.81.04,5.11-.11,6.93,1.23,6.75,6.68-.34,10.93,0,10.94-10.6,10.95-3.26,0-6.51,0-9.77,0-14.62,0-14.18.02-14.76,14.43-.29,7.17,2.11,9.08,8.81,8.55,6.47-.51,13.02.11,19.52-.1,3.89-.12,5.57,1.23,5.17,5.18-.2,1.98-.2,4.02.02,6,.52,4.68-.91,6.79-6.13,6.46-6.98-.45-14.04.24-21.02-.19-5.58-.35-8.07,2.46-6.03,6.85,2.44,5.23-7.3,15.1,5.75,15.92,7.73.49,15.54.41,23.28,0,4.86-.26,6.25,1.53,5.69,5.99-.25,1.97-.18,4.02.06,5.99.57,4.66-1.4,5.96-5.96,5.88-13.77-.26-27.55-.27-41.32.06-4.86.12-5.88-1.73-5.82-6.11.21-14.51.08-29.03.07-43.55Z"/>
      <path class="cls-2" d="M999.91,420.45c8.68,7.93,7.22,18.08,10.27,26.64.46,1.28.15,3.22-1.34,4.01-2.49,1.33-1.79-2.61-4.17-2.46.11,19.8-7.86,37.67-13.99,55.98-2.21,6.61-2.54,13.71-5.81,20.05-2.09,4.07-12.35,10.46-16.76,9.83-6.37-.91-11.9-6.83-12.38-13.91-.22-3.26-.17-6.4-1.91-9.35-2.94-5.01-1.67-9.9,1.73-13.89,5.68-6.65,7.27-13.49,4.48-22.02-4.21-12.88-.69-18.92,11.87-23.81,7.93-3.09,14.29-7.25,18.75-15.8,2.47-4.74,7.15-9.32,9.25-15.28Z"/>
      <path class="cls-1" d="M105.33,719.98c0-13.98.18-27.97-.09-41.95-.11-5.8,1.72-7.87,7.79-7.63,11.98.48,24.01.37,36,.01,5.31-.16,7.35,1.65,6.71,6.83-.21,1.72-.17,3.52.05,5.24.59,4.48-.95,6.28-5.74,5.99-6.73-.4-13.5.04-20.25-.19-3.77-.13-5.17,1.08-5.41,5.03-1.08,17.87-1.2,17.86,16.61,17.9,1,0,2,0,3,.01,10.55.07,13.53,4.29,10.72,14.8-.88,3.29-3.22,3.34-5.79,3.35-5.75.02-11.52.37-17.24-.02-5.4-.37-7.7,1.11-7.3,6.99.51,7.46.06,14.99.12,22.49.08,10.47.12,10.47-10.68,10.49-.75,0-1.51-.05-2.25.03-4.47.51-6.19-1.24-6.1-5.92.25-14.48.09-28.97.09-43.46-.08,0-.16,0-.24,0Z"/>
      <path class="cls-3" d="M806.22,720.45c0-14.49.19-28.99-.11-43.47-.1-4.95,1.46-6.52,6.38-6.4,12.49.29,25,.29,37.5.01,4.72-.11,7.1,1.04,6.51,6.16-.28,2.47-.23,5-.04,7.49.26,3.39-1.34,4.29-4.44,4.23-7.5-.13-15,.09-22.5-.1-3.52-.09-5.18,1.11-4.86,4.69.02.25,0,.5,0,.75q-.86,17.29,16.26,17.29c2,0,4.03.21,5.99-.05,6.31-.84,8.96,1.14,8.42,8.1-.79,10.34,2.24,9.55-10.25,9.8-6.44.13-14.73-2.76-18.84,1.23-4.46,4.34-1.05,12.79-1.55,19.42-.19,2.48-.03,4.99-.03,7.49.02,12.7-2.43,14.53-15.19,12.29-4.39-.77-3.25-3.72-3.26-6.2-.08-14.24-.04-28.48-.04-42.72h.04Z"/>
      <path class="cls-3" d="M747.53,720.57c0-14.5.19-29-.1-43.49-.1-4.75,1.02-6.69,6.12-6.49,14.29.57,12.19-2.2,12.27,12.26.11,20.75.11,41.5-.09,62.24-.05,4.72,1.17,6.77,6.29,6.42,6.22-.43,12.51.1,18.75-.17,3.89-.17,5.08,1.08,5.21,5.03.42,12.96.6,12.95-12.22,12.95-9.76,0-19.52-.31-29.26.12-5.44.24-7.34-1.03-7.14-6.88.48-13.98.15-27.99.16-41.99Z"/>
      <path class="cls-1" d="M265.79,720.55c0,14-.22,28,.11,41.98.12,5.09-1.13,7.2-6.55,6.89-12.81-.73-12.58,3.11-12.46-12.94.19-26.23.2-52.46-.18-78.69-.08-5.65,1.32-8.01,6.97-7.28.49.06,1,.02,1.5.02q10.6-.04,10.62,10.28c0,13.25,0,26.49,0,39.74Z"/>
      <path class="cls-3" d="M866.28,472.08c-23.71,4.86-45.6,4.43-69.04.39,10.55-7.83,55.63-8.04,69.04-.39Z"/>
      <path class="cls-1" d="M830.65,60.92c-3.55-1.25-6.67-3.78-10.59-3.59-9.47.46-16.96-6.38-26.17-6.95-1.94-.12-3.18-1.87-4.57-3.45-5.62-6.4-12.33-3.63-18.46-1.02-5.04,2.14-7.75,6.06-5.61,12.07,1.25,3.52-.26,6.45-3.31,8.33-3.02,1.87-6.02,1.85-8.94-.67-4.03-3.48-8.73-5.45-14.15-5.89-5.53-.44-10.39-2.35-11.72-8.51-.63-2.91-2.91-2.92-4.85-3.88-10.33-5.1-22.81-2.85-32.65-10.65-5.21-4.13-6.63-4.52-1.28-9.28,3.18-2.82,6.95-6.88,3.75-9.92-5.49-5.22-2.12-8.57,1.27-13.51-3.49-.39-6.38,1.21-8.28-1.87-1.86-3.01-4.98-2.34-7.37-1.06-10.29,5.51-22.15,3.64-32.51,3.86-11.89.25-23.39,1.63-34.34,4.7-6.1,1.71-13.32,4.32-18.16,9.78-1.65,1.87-3.8,2.33-6.11,2.28-6.25-.16-12.5-.41-18.75-.57-1.84-.05-3.21-.72-4.65-1.95-6.79-5.82-7.45-5.73-10.24,3.14-1.77,5.62-3.44,11.25-9.35,13.59-14.54,5.77-20.24,16.44-18.41,31.6.37,3.02-.88,5.43-2.89,7.41-2.84,2.79-5.7,5.63-8.89,7.99-7.76,5.75-17.14,8.72-22.32,18.68-2.39,4.59-6.36,8.81-7.83,14.28-.38,1.42-.36,3.46-1.29,4.13-7.79,5.52-8.74,15.4-14.47,22.26-2.74,3.28-2.87,7.47,1.25,10.47,1.94,1.41,3.67,3.32,3.34,5.52-1.53,10.08,4.78,20.21-.96,30.47-1.91,3.42-1.79,8.18-4.76,11.49-1.25,1.39-2.41,3.26-1.03,4.67,3.95,4.02,2.82,8.77,2.62,13.46-.13,3.04,1.22,5.94,3.69,6.89,5.35,2.06,8.6,6.45,11.8,10.42,4.56,5.66,12.64,8.74,13.49,17.19.54,5.33,4.16,8.76,7.92,11.28,8.84,5.9,17.59,11.84,25.85,18.55,5.13,4.16,10.91,6.3,17.9,3.16,11.26-5.05,23.12-5.9,35.11-2.76,3.96,1.03,7.3-.26,10.85-1.6,11.47-4.34,22.74-9.25,35.22-10.38,8.06-.73,14.23,2.2,16.86,9.47,3.04,8.4,7.73,8.64,15.1,6.27,11.05-3.55,22.46,4.47,21.06,14.41-1.11,7.85-1.52,16.34-4.94,23.19-4.15,8.31-.55,13.94,4.35,18.08,13.57,11.46,20.81,26.42,26.4,42.57.8,2.3,3.79,4.61,2.23,6.83-4.18,5.95-.24,10.25,2.15,14.97,3.3,6.5,1.96,12.46-3.42,17.82-2.06,2.05-3.94,4.74-4.77,7.48-3.1,10.18-6.76,20.29-6.44,31.19.11,3.69.48,5.44,5.23,3.38,18.04-7.83,37.3-10.92,56.7-12.91,18.19-1.86,36.41-2.26,54.7-.56,12.34,1.15,12.32.64,12.32-11.5.01-117.67.04-235.34.13-353.01,0-2.07-.21-3.78-1.26-5.64-5.64-9.99-4.74-14.24,4.43-22.2ZM806.29,190.56c-27.77-10.01-55.96-18.84-83.96-28.21-19.18-6.42-38.31-12.99-59.59-20.21,13.79-4.72,25.48-8.76,37.21-12.72,31.99-10.8,64.09-21.26,95.94-32.44,18.15-6.37,17.98-6.89,18,12.16.02,25.25-.07,50.51.08,75.76.03,5.92.08,8.46-7.67,5.66Z"/>
    </g>
  </g>
</svg>